HIERARCHY
ROOT Hips
{
	OFFSET -0.001795 -0.223333 0.028219
	CHANNELS 6 Xposition Yposition Zposition Zrotation Yrotation Xrotation 
	JOINT LeftUpLeg
	{
		OFFSET 0.069520 -0.091406 -0.006815
		CHANNELS 3 Zrotation Yrotation Xrotation
		JOINT LeftLeg
		{
			OFFSET 0.034277 -0.375199 -0.004496
			CHANNELS 3 Zrotation Yrotation Xrotation
			JOINT LeftFoot
			{
				OFFSET -0.013596 -0.397961 -0.043693
				CHANNELS 3 Zrotation Yrotation Xrotation
				JOINT LeftToe
				{
					OFFSET 0.026358 -0.055791 0.119288
					CHANNELS 3 Zrotation Yrotation Xrotation
					End Site
					{
						OFFSET 0.000000 0.000000 0.000000
					}
				}
			}
		}
	}
	JOINT RightUpLeg
	{
		OFFSET -0.067670 -0.090522 -0.004320
		CHANNELS 3 Zrotation Yrotation Xrotation
		JOINT RightLeg
		{
			OFFSET -0.038290 -0.382569 -0.008850
			CHANNELS 3 Zrotation Yrotation Xrotation
			JOINT RightFoot
			{
				OFFSET 0.015774 -0.398415 -0.042312
				CHANNELS 3 Zrotation Yrotation Xrotation
				JOINT RightToe
				{
					OFFSET -0.025372 -0.048144 0.123348
					CHANNELS 3 Zrotation Yrotation Xrotation
					End Site
					{
						OFFSET 0.000000 0.000000 0.000000
					}
				}
			}
		}
	}
	JOINT Spine
	{
		OFFSET -0.002533 0.108963 -0.026696
		CHANNELS 3 Zrotation Yrotation Xrotation
		JOINT Spine1
		{
			OFFSET 0.005487 0.135180 0.001092
			CHANNELS 3 Zrotation Yrotation Xrotation
			JOINT Spine2
			{
				OFFSET 0.001457 0.052922 0.025425
				CHANNELS 3 Zrotation Yrotation Xrotation
				JOINT Neck
				{
					OFFSET -0.002778 0.213870 -0.042857
					CHANNELS 3 Zrotation Yrotation Xrotation
					JOINT Head
					{
						OFFSET 0.005152 0.064970 0.051349
						CHANNELS 3 Zrotation Yrotation Xrotation
						End Site
						{
							OFFSET 0.000000 0.000000 0.000000
						}
					}
				}
				JOINT LeftShoulder
				{
					OFFSET 0.078845 0.121749 -0.034090
					CHANNELS 3 Zrotation Yrotation Xrotation
					JOINT LeftArm
					{
						OFFSET 0.090977 0.030469 -0.008868
						CHANNELS 3 Zrotation Yrotation Xrotation
						JOINT LeftForeArm
						{
							OFFSET 0.259612 -0.012772 -0.027456
							CHANNELS 3 Zrotation Yrotation Xrotation
							JOINT LeftHand
							{
								OFFSET 0.249234 0.008986 -0.001171
								CHANNELS 3 Zrotation Yrotation Xrotation
								End Site
								{
									OFFSET 0.000000 0.000000 0.000000
								}
							}
						}
					}
				}
				JOINT RightShoulder
				{
					OFFSET -0.081759 0.118833 -0.038615
					CHANNELS 3 Zrotation Yrotation Xrotation
					JOINT RightArm
					{
						OFFSET -0.096012 0.032551 -0.009143
						CHANNELS 3 Zrotation Yrotation Xrotation
						JOINT RightForeArm
						{
							OFFSET -0.253742 -0.013329 -0.021401
							CHANNELS 3 Zrotation Yrotation Xrotation
							JOINT RightHand
							{
								OFFSET -0.255298 0.007772 -0.005559
								CHANNELS 3 Zrotation Yrotation Xrotation
								End Site
								{
									OFFSET 0.000000 0.000000 0.000000
								}
							}
						}
					}
				}
			}
		}
	}
}
MOTION
Frames: 5
Frame Time: 0.050000
-0.174472 0.937723 -0.429541 -3.465950 36.948237 4.773527 11.465032 -2.290575 -22.213765 1.458845 -3.019137 22.242452 0.448610 1.665309 1.185661 0.000000 0.000000 0.000000 4.514741 1.443693 -14.800645 -1.666727 -0.179331 13.666563 -4.524783 -11.594488 0.516390 0.000000 0.000000 0.000000 -3.904146 0.002615 1.570460 0.363037 1.182617 -17.150848 -0.984418 -2.885575 10.785274 0.457239 3.467529 -20.193153 0.000000 0.000000 0.000000 6.142193 -9.467571 3.876653 11.002806 -62.140503 -15.535813 94.576897 -5.255385 -11.172735 0.000000 0.000000 0.000000 -24.198495 16.723227 0.419608 -33.163481 53.501409 -11.760459 -81.500769 -16.409365 18.857807 0.000000 0.000000 0.000000 
-0.172560 0.937186 -0.430542 -3.488156 37.159400 4.651079 11.610462 -2.201536 -21.457256 0.544033 -2.736740 21.956038 0.539943 1.657006 0.984392 0.000000 0.000000 0.000000 3.956930 1.357135 -14.358724 -0.690796 -0.437616 13.316228 -4.794863 -12.420881 0.208037 0.000000 0.000000 0.000000 -3.797034 -0.000888 1.742657 -0.395156 1.384260 -17.130394 -0.122636 -2.221329 10.588127 1.664448 2.866608 -20.071345 0.000000 0.000000 0.000000 5.835270 -9.589297 3.864884 11.274771 -63.867418 -16.585827 95.416966 -3.904312 -9.872866 0.000000 0.000000 0.000000 -26.139117 17.887993 0.084184 -36.450804 55.673783 -13.493413 -80.552788 -19.898381 20.969248 0.000000 0.000000 0.000000 
-0.168876 0.936108 -0.432174 -3.656992 37.746535 4.871823 11.824614 -2.225066 -21.382655 0.200367 -2.579213 21.472836 0.380059 0.552679 0.147942 0.000000 0.000000 0.000000 4.056599 1.364562 -14.631646 -0.797425 -0.447233 13.503599 -4.782873 -12.675289 -0.570813 0.000000 0.000000 0.000000 -3.275613 0.004410 1.047542 -1.233982 1.610164 -15.483374 0.316948 -1.208442 8.980196 2.682354 2.283209 -19.269889 0.000000 0.000000 0.000000 6.356974 -10.343106 4.195032 13.080913 -65.184395 -18.548061 94.211826 -2.873960 -8.710829 0.000000 0.000000 0.000000 -24.039077 18.575015 0.695975 -39.147641 59.559039 -16.293231 -80.147539 -18.488325 19.304013 0.000000 0.000000 0.000000 
-0.163360 0.935067 -0.434252 -3.808188 38.425435 4.762437 12.086418 -2.213496 -20.991489 -0.509521 -2.369493 21.093488 -0.388410 -0.582717 0.673769 0.000000 0.000000 0.000000 3.696132 1.300427 -14.579384 -0.405212 -0.597635 13.547732 -5.329781 -13.830479 0.190386 0.000000 0.000000 0.000000 -3.538659 0.003006 0.981017 -1.229507 1.610742 -14.819464 0.770022 -1.675765 8.653697 2.302343 2.552569 -19.800949 0.000000 0.000000 0.000000 6.682838 -10.453476 4.271784 15.129732 -65.111889 -19.740883 93.365333 -1.726437 -7.352581 0.000000 0.000000 0.000000 -22.167786 19.661367 1.433131 -40.171589 61.905482 -18.281294 -82.063470 -16.973842 18.424473 0.000000 0.000000 0.000000 
-0.156201 0.934832 -0.436039 -3.919097 40.141155 4.973975 11.987376 -2.312320 -21.053352 -0.622329 -2.218901 20.065675 -0.958770 -1.720929 0.784784 0.000000 0.000000 0.000000 3.610215 1.252472 -14.661063 -0.483016 -0.628880 13.379652 -5.941235 -15.321986 0.486012 0.000000 0.000000 0.000000 -3.763132 0.000867 0.926187 -0.750363 1.500852 -14.744374 0.909867 -2.460598 8.468769 1.789521 2.850950 -19.670249 0.000000 0.000000 0.000000 7.488980 -10.999237 4.555743 21.430309 -64.543972 -23.558182 90.929763 1.073060 -4.280539 0.000000 0.000000 0.000000 -19.662202 19.895888 2.126892 -38.670542 63.745379 -18.594636 -86.386584 -14.855710 18.134847 0.000000 0.000000 0.000000 
